{
  "accessors": [
    {
      "bufferView": 1,
      "componentType": 5126,
      "count": 65532,
      "max": [
        34.78744888305664,
        64.4301986694336,
        99.9700927734375
      ],
      "min": [
        -76.55547332763672,
        -36.35106658935547,
        -0.00017850167932920158
      ],
      "type": "VEC3"
    },
    {
      "bufferView": 1,
      "byteOffset": 786384,
      "componentType": 5126,
      "count": 65532,
      "max": [
        0.9999691843986511,
        0.9999918937683105,
        0.9999857544898987
      ],
      "min": [
        -0.999786376953125,
        -0.9999762177467346,
        -1.0
      ],
      "type": "VEC3"
    },
    {
      "bufferView": 0,
      "componentType": 5125,
      "count": 325716,
      "type": "SCALAR"
    },
    {
      "bufferView": 1,
      "byteOffset": 1572768,
      "componentType": 5126,
      "count": 65532,
      "max": [
        35.070552825927734,
        65.5374984741211,
        96.83719635009766
      ],
      "min": [
        -88.01251983642578,
        -36.627742767333984,
        0.03046124428510666
      ],
      "type": "VEC3"
    },
    {
      "bufferView": 1,
      "byteOffset": 2359152,
      "componentType": 5126,
      "count": 65532,
      "max": [
        0.9999961256980896,
        0.9999629855155945,
        0.9999922513961792
      ],
      "min": [
        -0.9999921917915344,
        -0.9999874830245972,
        -0.9999945163726807
      ],
      "type": "VEC3"
    },
    {
      "bufferView": 0,
      "byteOffset": 1302864,
      "componentType": 5125,
      "count": 339303,
      "type": "SCALAR"
    },
    {
      "bufferView": 1,
      "byteOffset": 3145536,
      "componentType": 5126,
      "count": 65532,
      "max": [
        36.519962310791016,
        65.5374984741211,
        99.45384979248047
      ],
      "min": [
        -88.39032745361328,
        -34.44181442260742,
        -3.5978968071503914e-07
      ],
      "type": "VEC3"
    },
    {
      "bufferView": 1,
      "byteOffset": 3931920,
      "componentType": 5126,
      "count": 65532,
      "max": [
        0.9999961256980896,
        0.9999948740005493,
        0.9999814629554749
      ],
      "min": [
        -0.9999617338180542,
        -0.9999845027923584,
        -0.9988884329795837
      ],
      "type": "VEC3"
    },
    {
      "bufferView": 0,
      "byteOffset": 2660076,
      "componentType": 5125,
      "count": 325842,
      "type": "SCALAR"
    },
    {
      "bufferView": 1,
      "byteOffset": 4718304,
      "componentType": 5126,
      "count": 65532,
      "max": [
        85.04399871826172,
        59.483577728271484,
        98.73026275634766
      ],
      "min": [
        -77.88152313232422,
        -36.60676956176758,
        0.30480659008026123
      ],
      "type": "VEC3"
    },
    {
      "bufferView": 1,
      "byteOffset": 5504688,
      "componentType": 5126,
      "count": 65532,
      "max": [
        0.9999706149101257,
        0.9999882578849792,
        0.9999922513961792
      ],
      "min": [
        -0.9998863339424133,
        -0.9999762177467346,
        -0.9999326467514038
      ],
      "type": "VEC3"
    },
    {
      "bufferView": 0,
      "byteOffset": 3963444,
      "componentType": 5125,
      "count": 334203,
      "type": "SCALAR"
    },
    {
      "bufferView": 1,
      "byteOffset": 6291072,
      "componentType": 5126,
      "count": 65532,
      "max": [
        95.04889678955078,
        28.99599266052246,
        99.77010345458984
      ],
      "min": [
        -17.53510856628418,
        -14.813165664672852,
        3.311554431915283
      ],
      "type": "VEC3"
    },
    {
      "bufferView": 1,
      "byteOffset": 7077456,
      "componentType": 5126,
      "count": 65532,
      "max": [
        0.9999890923500061,
        0.9999682903289795,
        0.9997673630714417
      ],
      "min": [
        -0.9997493028640747,
        -0.9999634027481079,
        -0.9999800324440002
      ],
      "type": "VEC3"
    },
    {
      "bufferView": 0,
      "byteOffset": 5300256,
      "componentType": 5125,
      "count": 365028,
      "type": "SCALAR"
    },
    {
      "bufferView": 1,
      "byteOffset": 7863840,
      "componentType": 5126,
      "count": 65532,
      "max": [
        15.980504035949707,
        28.29817771911621,
        99.9999008178711
      ],
      "min": [
        -89.2131576538086,
        -36.341007232666016,
        7.689112186431885
      ],
      "type": "VEC3"
    },
    {
      "bufferView": 1,
      "byteOffset": 8650224,
      "componentType": 5126,
      "count": 65532,
      "max": [
        0.9999974966049194,
        0.9999086260795593,
        0.9999762177467346
      ],
      "min": [
        -0.9999958872795105,
        -0.9999773502349854,
        -0.9999688267707825
      ],
      "type": "VEC3"
    },
    {
      "bufferView": 0,
      "byteOffset": 6760368,
      "componentType": 5125,
      "count": 331965,
      "type": "SCALAR"
    },
    {
      "bufferView": 1,
      "byteOffset": 9436608,
      "componentType": 5126,
      "count": 65532,
      "max": [
        7.106724739074707,
        55.96794509887695,
        99.77117919921875
      ],
      "min": [
        -95.05477905273438,
        -14.814291954040527,
        21.144424438476563
      ],
      "type": "VEC3"
    },
    {
      "bufferView": 1,
      "byteOffset": 10222992,
      "componentType": 5126,
      "count": 65532,
      "max": [
        0.9996463060379028,
        0.9999253749847412,
        0.9999904036521912
      ],
      "min": [
        -0.999760627746582,
        -0.9999595284461975,
        -0.9998925924301147
      ],
      "type": "VEC3"
    },
    {
      "bufferView": 0,
      "byteOffset": 8088228,
      "componentType": 5125,
      "count": 366489,
      "type": "SCALAR"
    },
    {
      "bufferView": 1,
      "byteOffset": 11009376,
      "componentType": 5126,
      "count": 65532,
      "max": [
        30.891124725341797,
        64.51863098144531,
        83.02461242675781
      ],
      "min": [
        -63.641448974609375,
        -27.07835578918457,
        0.0455520935356617
      ],
      "type": "VEC3"
    },
    {
      "bufferView": 1,
      "byteOffset": 11795760,
      "componentType": 5126,
      "count": 65532,
      "max": [
        0.9999534487724304,
        0.9999996423721313,
        0.9998706579208374
      ],
      "min": [
        -0.9999945759773254,
        -0.9998429417610168,
        -0.9999982118606567
      ],
      "type": "VEC3"
    },
    {
      "bufferView": 0,
      "byteOffset": 9554184,
      "componentType": 5125,
      "count": 330249,
      "type": "SCALAR"
    },
    {
      "bufferView": 1,
      "byteOffset": 12582144,
      "componentType": 5126,
      "count": 65532,
      "max": [
        32.48493194580078,
        64.55217742919922,
        99.91061401367188
      ],
      "min": [
        -95.00226593017578,
        -36.09769821166992,
        -3.23516974276572e-06
      ],
      "type": "VEC3"
    },
    {
      "bufferView": 1,
      "byteOffset": 13368528,
      "componentType": 5126,
      "count": 65532,
      "max": [
        0.9999948143959045,
        0.9999933242797852,
        0.9999904036521912
      ],
      "min": [
        -0.9999921917915344,
        -0.9999869465827942,
        -0.9999997615814209
      ],
      "type": "VEC3"
    },
    {
      "bufferView": 0,
      "byteOffset": 10875180,
      "componentType": 5125,
      "count": 317718,
      "type": "SCALAR"
    },
    {
      "bufferView": 1,
      "byteOffset": 14154912,
      "componentType": 5126,
      "count": 37410,
      "max": [
        89.14311218261719,
        65.39788055419922,
        99.76021575927734
      ],
      "min": [
        -95.0369644165039,
        -36.627742767333984,
        -2.697401214390993e-05
      ],
      "type": "VEC3"
    },
    {
      "bufferView": 1,
      "byteOffset": 14603832,
      "componentType": 5126,
      "count": 37410,
      "max": [
        0.9999447464942932,
        0.9998910427093506,
        0.9998941421508789
      ],
      "min": [
        -0.9999945759773254,
        -0.9999812245368958,
        -0.9999999403953552
      ],
      "type": "VEC3"
    },
    {
      "bufferView": 0,
      "byteOffset": 12146052,
      "componentType": 5125,
      "count": 105603,
      "type": "SCALAR"
    }
  ],
  "asset": {
    "extras": {
      "author": "Patrickart.hk (https://sketchfab.com/Patrickart.hk)",
      "license": "CC-BY-NC-ND-4.0 (http://creativecommons.org/licenses/by-nc-nd/4.0/)",
      "source": "https://sketchfab.com/3d-models/charizardpokemon-175df97a473e4f5f9317b2b937901fd5",
      "title": "Charizard(Pokemon)"
    },
    "generator": "Sketchfab-12.67.0",
    "version": "2.0"
  },
  "bufferViews": [
    {
      "buffer": 0,
      "byteLength": 12568464,
      "name": "floatBufferViews",
      "target": 34963
    },
    {
      "buffer": 0,
      "byteLength": 15052752,
      "byteOffset": 12568464,
      "byteStride": 12,
      "name": "floatBufferViews",
      "target": 34962
    }
  ],
  "buffers": [
    {
      "byteLength": 27621216,
      "uri": "scene.bin"
    }
  ],
  "materials": [
    {
      "doubleSided": true,
      "name": "Scene_-_Root",
      "pbrMetallicRoughness": {
        "metallicFactor": 0.0,
        "roughnessFactor": 0.6
      }
    }
  ],
  "meshes": [
    {
      "name": "Object_0",
      "primitives": [
        {
          "attributes": {
            "NORMAL": 1,
            "POSITION": 0
          },
          "indices": 2,
          "material": 0,
          "mode": 4
        }
      ]
    },
    {
      "name": "Object_1",
      "primitives": [
        {
          "attributes": {
            "NORMAL": 4,
            "POSITION": 3
          },
          "indices": 5,
          "material": 0,
          "mode": 4
        }
      ]
    },
    {
      "name": "Object_2",
      "primitives": [
        {
          "attributes": {
            "NORMAL": 7,
            "POSITION": 6
          },
          "indices": 8,
          "material": 0,
          "mode": 4
        }
      ]
    },
    {
      "name": "Object_3",
      "primitives": [
        {
          "attributes": {
            "NORMAL": 10,
            "POSITION": 9
          },
          "indices": 11,
          "material": 0,
          "mode": 4
        }
      ]
    },
    {
      "name": "Object_4",
      "primitives": [
        {
          "attributes": {
            "NORMAL": 13,
            "POSITION": 12
          },
          "indices": 14,
          "material": 0,
          "mode": 4
        }
      ]
    },
    {
      "name": "Object_5",
      "primitives": [
        {
          "attributes": {
            "NORMAL": 16,
            "POSITION": 15
          },
          "indices": 17,
          "material": 0,
          "mode": 4
        }
      ]
    },
    {
      "name": "Object_6",
      "primitives": [
        {
          "attributes": {
            "NORMAL": 19,
            "POSITION": 18
          },
          "indices": 20,
          "material": 0,
          "mode": 4
        }
      ]
    },
    {
      "name": "Object_7",
      "primitives": [
        {
          "attributes": {
            "NORMAL": 22,
            "POSITION": 21
          },
          "indices": 23,
          "material": 0,
          "mode": 4
        }
      ]
    },
    {
      "name": "Object_8",
      "primitives": [
        {
          "attributes": {
            "NORMAL": 25,
            "POSITION": 24
          },
          "indices": 26,
          "material": 0,
          "mode": 4
        }
      ]
    },
    {
      "name": "Object_9",
      "primitives": [
        {
          "attributes": {
            "NORMAL": 28,
            "POSITION": 27
          },
          "indices": 29,
          "material": 0,
          "mode": 4
        }
      ]
    }
  ],
  "nodes": [
    {
      "children": [
        1
      ],
      "matrix": [
        1.0,
        0.0,
        0.0,
        0.0,
        0.0,
        2.220446049250313e-16,
        -1.0,
        0.0,
        0.0,
        1.0,
        2.220446049250313e-16,
        0.0,
        0.0,
        0.0,
        0.0,
        1.0
      ],
      "name": "Sketchfab_model"
    },
    {
      "children": [
        2,
        3,
        4,
        5,
        6,
        7,
        8,
        9,
        10,
        11
      ],
      "name": "Charizard_50MB.stl.cleaner.materialmerger.gles"
    },
    {
      "mesh": 0,
      "name": "Object_2"
    },
    {
      "mesh": 1,
      "name": "Object_3"
    },
    {
      "mesh": 2,
      "name": "Object_4"
    },
    {
      "mesh": 3,
      "name": "Object_5"
    },
    {
      "mesh": 4,
      "name": "Object_6"
    },
    {
      "mesh": 5,
      "name": "Object_7"
    },
    {
      "mesh": 6,
      "name": "Object_8"
    },
    {
      "mesh": 7,
      "name": "Object_9"
    },
    {
      "mesh": 8,
      "name": "Object_10"
    },
    {
      "mesh": 9,
      "name": "Object_11"
    }
  ],
  "scene": 0,
  "scenes": [
    {
      "name": "Sketchfab_Scene",
      "nodes": [
        0
      ]
    }
  ]
}
