<?xml version="1.0" standalone="no"?>
<!DOCTYPE svg PUBLIC "-//W3C//DTD SVG 20010904//EN"
 "http://www.w3.org/TR/2001/REC-SVG-20010904/DTD/svg10.dtd">
<svg version="1.0" xmlns="http://www.w3.org/2000/svg"
 width="2000.000000pt" height="2000.000000pt" viewBox="0 0 2000.000000 2000.000000"
 preserveAspectRatio="xMidYMid meet">

<g transform="translate(0.000000,2000.000000) scale(0.100000,-0.100000)"
fill="#000000" stroke="none">
<path d="M12106 15216 c-103 -39 -165 -163 -136 -274 11 -39 29 -63 111 -143
54 -53 107 -112 118 -130 42 -69 18 -155 -58 -206 -95 -64 -276 15 -322 141
-15 41 -24 43 -57 18 l-24 -18 21 -46 c54 -114 212 -208 350 -208 145 0 273
155 241 290 -14 58 -48 103 -151 199 -84 77 -109 119 -109 178 0 161 214 180
344 30 l45 -50 20 24 c11 13 20 28 21 33 0 22 -107 110 -167 139 -79 36 -184
46 -247 23z"/>
<path d="M7922 15190 c-29 -10 -68 -28 -87 -40 -33 -21 -145 -135 -145 -148 1
-4 9 -17 20 -30 l19 -23 33 38 c56 64 81 85 133 109 68 32 134 32 173 -1 30
-25 113 -171 111 -197 0 -7 -39 -38 -86 -68 -163 -105 -262 -242 -250 -347 7
-64 44 -131 90 -161 36 -24 50 -27 121 -27 73 0 87 3 144 34 73 40 115 86 140
154 l18 49 27 -35 c47 -62 99 -58 186 14 38 33 41 47 15 78 -1 2 -17 -7 -34
-19 -63 -45 -68 -37 -245 357 -77 173 -121 240 -176 268 -39 21 -143 18 -207
-5z m345 -478 c45 -100 51 -122 44 -152 -22 -97 -90 -160 -189 -176 -86 -14
-164 65 -164 166 0 60 21 98 96 168 48 46 141 112 155 112 4 0 29 -53 58 -118z"/>
<path d="M15018 12206 c-328 -127 -599 -234 -602 -237 -8 -7 34 -109 44 -109
4 0 153 56 331 125 259 101 328 124 345 116 40 -18 95 -74 120 -123 50 -99 40
-180 -30 -233 -20 -15 -168 -79 -327 -141 -160 -62 -293 -115 -296 -118 -8 -8
32 -106 43 -106 27 0 612 233 648 258 21 15 51 44 65 66 23 35 26 49 26 125 0
76 -4 93 -32 146 -30 59 -120 155 -145 155 -32 0 24 26 232 106 124 47 227 88
229 89 3 4 -46 116 -51 114 -2 -1 -272 -105 -600 -233z"/>
<path d="M5020 12224 c-11 -32 -10 -38 6 -54 11 -10 145 -111 299 -225 154
-114 281 -211 283 -216 2 -5 -164 -10 -379 -11 l-382 -3 -23 -67 -23 -68 32 0
c18 0 223 7 457 16 234 10 437 14 452 11 35 -9 221 -188 243 -234 23 -49 22
-104 -3 -146 l-20 -34 34 -17 c19 -9 37 -16 39 -16 3 0 16 23 31 52 22 43 25
62 22 109 -5 75 -50 142 -168 250 -80 74 -867 689 -882 689 -3 0 -12 -16 -18
-36z"/>
<path d="M9865 12020 c-949 -58 -1729 -782 -1870 -1735 -22 -146 -22 -424 0
-570 122 -821 714 -1478 1514 -1679 232 -59 545 -75 776 -41 820 121 1478 714
1679 1514 79 310 79 672 0 982 -239 953 -1113 1589 -2099 1529z m340 -581
c410 -52 803 -308 1032 -674 54 -85 130 -256 158 -350 76 -264 76 -566 0 -830
-28 -94 -104 -265 -158 -350 -145 -232 -354 -420 -602 -541 -211 -103 -396
-145 -635 -145 -226 0 -419 42 -610 132 -125 60 -179 92 -285 175 -173 133
-311 305 -411 509 -103 211 -145 396 -145 635 0 239 42 424 145 635 100 204
239 376 411 509 103 80 142 104 255 161 256 129 536 173 845 134z"/>
<path d="M9810 11195 c-327 -52 -630 -246 -814 -524 -405 -607 -188 -1426 465
-1752 100 -50 190 -81 301 -105 115 -25 361 -25 476 0 485 104 844 463 948
948 13 60 18 127 18 238 0 216 -33 360 -123 540 -236 471 -751 736 -1271 655z
m405 -400 c222 -61 425 -230 524 -438 63 -130 75 -190 75 -357 0 -167 -12
-227 -75 -357 -78 -164 -219 -304 -383 -383 -129 -62 -190 -74 -356 -74 -166
0 -227 12 -356 74 -164 79 -305 220 -383 383 -54 112 -71 182 -78 318 -12 242
67 450 237 619 112 112 255 191 405 224 89 20 303 15 390 -9z"/>
<path d="M4907 10565 c-168 -46 -298 -173 -348 -338 -17 -55 -21 -88 -17 -170
3 -93 7 -109 40 -179 98 -206 296 -314 523 -287 188 23 361 176 410 364 69
267 -90 540 -356 610 -66 18 -187 18 -252 0z"/>
<path d="M15107 10565 c-221 -61 -367 -252 -367 -479 0 -146 50 -265 151 -361
272 -259 715 -138 823 224 20 69 21 189 1 266 -44 166 -184 305 -356 350 -66
18 -187 18 -252 0z"/>
<path d="M5268 8535 l-413 -356 -110 6 c-211 12 -291 32 -342 87 -25 27 -43
69 -43 104 0 18 -5 24 -22 24 -53 0 -68 -11 -68 -48 0 -91 49 -166 135 -207
112 -53 194 -57 902 -53 354 3 646 7 649 10 3 3 0 25 -7 49 l-13 42 -271 -7
c-148 -3 -349 -9 -445 -13 l-174 -6 34 30 c19 16 176 143 348 283 172 139 311
258 309 264 -2 6 -14 41 -26 79 -13 37 -24 67 -26 67 -2 0 -189 -160 -417
-355z"/>
<path d="M14622 8715 c-89 -28 -156 -105 -192 -224 -24 -75 -26 -187 -6 -236
8 -19 14 -35 13 -35 -2 0 -124 50 -272 110 -149 61 -275 108 -281 106 -10 -4
-51 -124 -43 -129 2 -2 315 -130 694 -284 l690 -280 21 46 c43 94 79 69 -346
242 -378 153 -380 154 -392 189 -30 87 -4 230 55 296 41 47 77 64 135 64 61 0
61 0 443 -156 171 -69 312 -124 314 -123 1 2 14 32 28 66 l25 61 -337 137
c-424 172 -453 180 -549 150z"/>
<path d="M8009 5908 c-9 -7 -19 -26 -22 -43 l-5 -30 102 0 c98 0 106 -2 172
-35 93 -48 118 -84 111 -165 -4 -56 -69 -235 -86 -235 -3 0 -35 9 -71 20 -109
33 -255 53 -334 46 -169 -15 -276 -118 -276 -265 0 -107 80 -200 218 -251 75
-29 185 -24 251 9 34 18 43 19 38 8 -43 -111 6 -176 145 -192 50 -6 57 -5 67
13 17 32 13 39 -24 46 -50 10 -68 32 -60 74 4 19 60 155 125 301 127 288 150
351 150 418 0 110 -95 211 -248 264 -74 26 -231 36 -253 17z m149 -549 c53
-12 92 -25 92 -32 0 -7 -27 -70 -58 -142 -57 -126 -60 -130 -106 -154 -30 -15
-71 -27 -107 -29 -52 -4 -68 0 -124 27 -120 59 -145 158 -69 271 59 88 163
104 372 59z"/>
<path d="M11969 5866 c-110 -38 -178 -95 -223 -183 -58 -116 0 -284 117 -339
48 -22 64 -24 218 -24 156 0 168 -1 215 -25 71 -35 98 -85 92 -170 -3 -53 -9
-71 -34 -102 -72 -89 -213 -124 -333 -84 -35 12 -65 21 -66 19 -2 -2 -6 -19
-10 -39 -6 -34 -5 -36 36 -55 34 -15 66 -19 149 -19 103 0 107 1 190 41 143
70 210 159 210 280 0 115 -49 208 -133 251 -50 26 -60 27 -242 32 -212 7 -237
14 -283 82 -20 28 -23 44 -20 91 5 73 38 117 115 155 52 25 68 28 161 28 109
0 107 -1 96 54 l-6 31 -92 0 c-69 0 -107 -6 -157 -24z"/>
</g>
</svg>
